<?xml version="1.0" encoding="utf-8"?>
<!-- Generator: Adobe Illustrator 25.4.1, SVG Export Plug-In . SVG Version: 6.00 Build 0)  -->
<svg version="1.1" id="Capa_1" xmlns="http://www.w3.org/2000/svg" xmlns:xlink="http://www.w3.org/1999/xlink" x="0px" y="0px"
	 viewBox="35 190 545 440" style="enable-background:new 35 190 545 440;" xml:space="preserve">
<style type="text/css">
	.st0{fill:none;stroke:#5C3317;stroke-width:6;stroke-miterlimit:10;}
</style>
<g fill="#5C3317">
	<path d="M443.24,552.35c10.37-1.47,20.75-2.99,31.04-4.91c24.19-4.52,48.33-9.29,72.5-13.93c6.99-1.34,14-2.56,21.03-3.84V398.74
		c-23.56,4.46-46.81,8.85-69.42,13.13c-0.07-0.15-0.14-0.29-0.21-0.44l-7.19,1.12c-33.33,6.28-65.78,12.39-98.93,18.64
		c2.06-2.21,3.66-3.86,5.2-5.57c2.3-2.56,2.13-5.16-0.23-7.54c-1.29-1.3-2.68-2.64-4.27-3.51c-19.57-10.68-39.33-20.96-60.42-28.37
		c-7.26-2.55-14.69-2.87-22.13-0.31c-3.73,1.28-5.68,0.1-6.91-3.75c-3.11-9.69,1.64-20.37,11-24.7c4.35-2.01,8.69-4.08,13.07-6.03
		c22.72-10.1,29-39.33,18.72-56.09c-0.23-0.38-0.37-0.82-0.6-1.33c5.43,0.5,10.29,5.36,11.75,11.32c1.5,6.13,0.55,12.06-1.61,17.77
		c-4.02,10.62-9.97,20.09-18.25,27.91c-4.8,4.53-7.58,14.83,0.13,21.26c2.18,1.82,4.45,3.54,6.5,5.49c3.11,2.97,3,4.37-0.2,7.16
		c6.34-0.93,8.15-4.72,4.59-10.01c-1.43-2.13-3.37-3.93-4.98-5.95c-2.71-3.39-2.71-6.42,0.78-8.95c3.13-2.27,6.74-4.05,10.39-5.38
		c6.22-2.28,12.79-3.67,18.94-6.1c14.78-5.84,25.4-15.97,29.83-31.57c3.09-10.87-1.1-21.87-10.52-28.21
		c-12.28-8.26-26-10.74-40.56-9.36c-2.44,0.23-4.88,0.54-7.32,0.8c-0.05,0.01-0.13-0.16-0.5-0.66c8.49-5.63,14.91-12.68,14.21-24.25
		c-9.01-0.15-16.93,2.61-23.82,7.03c-4.1-4.77-8.06-9.38-12.51-14.55c-4.46,8.74-6.25,16.92-4.87,25.91
		c-3.11-0.27-5.76-0.51-8.42-0.72c-9.99-0.8-19.67,0.46-28.97,4.32c-1.96,0.81-3.62,1.16-5.79-0.27
		c-7.15-4.72-17.07-1.59-21.78,6.54c-4.38,7.56-2.02,16.45,5.64,20.6c1.67,0.9,2.23,1.82,2.11,3.68c-0.2,3.16-0.05,6.34-0.05,9.96
		c-2.1-0.76-4.31-1.57-6.75-2.46c0.09,4.97,4.28,6.06,7.61,8.06c-1.3,3.47-3.49,5.95-6.79,7.46c-2.44,1.11-3.22,3.21-1.47,5.04
		c2.66,2.79,1.57,5.73,1.31,8.74c-0.08,0.91-0.3,2.32,0.17,2.67c2.87,2.17,3.14,4.67,2.32,8.05c-0.72,2.98,1.07,5.36,4.24,5.87
		c5.59,0.89,11.2,1.78,16.83,2.18c7.56,0.54,8.22,0.85,6.98,8.39c-2.28,13.85-8.97,25.16-20.32,33.6
		c-4.95,3.68-9.9,7.36-14.82,11.08c-1.18,0.89-2.28,1.89-3.33,2.94c-7.96,7.95-7.55,14.72,1.55,21.78
		c-2.12,5.36-4.17,10.86-6.48,16.25c-1.28,3-5.53,3.19-7.28,0.44c-6.52-10.31-13.15-20.56-19.43-31.02
		c-5.1-8.51-10.25-16.5-22.49-13.24c0.6-4.2,1.07-7.46,1.55-10.82c-6.4,0.56-12.46,1.09-18.53,1.62c-0.05-0.34-0.09-0.69-0.14-1.03
		c1.34-0.17,2.67-0.38,4.01-0.49c3.31-0.27,6.66-0.3,9.94-0.77c5.3-0.76,5.29-0.87,5.27-6.13c-6.72,0.29-13.45,0.82-20.18,0.79
		c-6.64-0.03-13.27-0.64-19.88-0.99c0.26,5.21,0.51,5.53,5.85,6.23c3.27,0.43,6.55,0.75,9.79,1.84c-4.56-0.3-9.11-0.6-14.24-0.94
		c0.82,4.24,1.64,8.47,2.44,12.59c-2.77,1.42-6.76-1.66-8.4,1.79c7.99,3.54,15.28,6.93,22.73,9.93c1.89,0.76,4.35,0.62,6.44,0.25
		c5.93-1.05,11.82-2.37,17.7-3.69c3.66-0.82,6.1,0.1,7.57,3.86c4.65,11.89,9.49,23.69,14.44,35.97
		c-36.82,6.92-73.16,13.75-110.39,20.75l-4.08,0.7c-7.52,1.32-14.57,2.49-21.6,3.81c-16.89,3.19-33.75,6.59-50.68,9.57
		c-3.46,0.61-4.2,1.77-4.19,5.1c0.12,41.5,0.07,83,0.07,124.5c0,1.18,0.1,2.36,0.16,3.73c1.52-0.31,2.71-0.55,3.9-0.78
		c30.07-5.86,60.14-11.75,90.22-17.58c26.94-5.22,53.89-10.37,80.83-15.6 M520.07,441.32c0.31,1.82,0.56,3.25,0.87,5.07
		c-14.18,2.71-28.27,5.4-42.54,8.12c-0.4-1.54-0.76-2.95-1.3-5C491.43,446.78,505.58,444.08,520.07,441.32z M445.37,456.06
		c0.13,3.91-0.91,5.85-4.83,6.23c-4.97,0.49-9.87,1.81-14.8,2.77c-4.81,0.94-9.61,1.9-14.71,2.9c-0.48-1.57-0.95-3.13-1.52-4.99
		C421.57,460.65,433.32,458.38,445.37,456.06z M320.98,410.94c17.11,4.72,33.99,9.37,50.92,14.03c-4.97,10.7-5,10.57-16.2,12.72
		c-15.71,3.01-31.37,6.22-47.06,9.34c-0.46,0.09-0.95,0.08-2.26,0.19C311.35,434.91,316.12,423.05,320.98,410.94z M323.68,508.61
		c2.94,1.21,6.1,1.92,9.04,3.14c9.72,4.05,10.82,12.41,2.33,18.63c-6,4.39-12.76,6.47-20.2,4.36c-6.2-1.76-9.68-8.99-6.91-14.79
		c0.68-1.42,2.55-2.77,5.05-2.81c1.67,0.98,1.1,2.54,1.01,3.76c-0.4,5.13,1.38,8.54,5.39,9.69c4.49,1.29,10.93-1.42,12.74-5.28
		c1.47-3.12-0.13-5.08-2.61-6.32c-2.84-1.41-5.93-2.32-8.88-3.52c-9.53-3.89-10.4-9.96-2.38-16.4c5.49-4.41,11.82-5.32,18.5-4.11
		c4.14,0.75,5.94,3.1,5.36,6.19c-0.61,3.25-3.04,4.7-6.3,4.44c-1.71-2.72-2.48-5.47-4.18-6.3c-3.23-1.57-6.51-0.04-9.1,2.32
		C319.76,504.13,320.23,507.18,323.68,508.61z M317.26,485.8c-0.09-3.44,0.5-5.43,4.3-6.1c12.35-2.16,24.63-4.75,36.95-7.16
		c0.33-0.06,0.7,0.06,1.08,0.1c-0.24,3.59-1.57,5.64-5.53,6.3C341.85,480.98,329.71,483.45,317.26,485.8z M304.04,480.41
		c4.68-3.84,4.87-4.77,1.1-9.18c-1.84-2.15-1.3-4.92,1.35-6.98c2.85-2.21,5.75-1.34,8.1,0.46c1.37,1.05,1.99,2.56,1.67,5.53
		c-0.4,6.58-4.49,12.45-10.34,14.11c-0.94,0.27-2.07,0.07-3.2-0.55C302.17,482.15,303.23,481.08,304.04,480.41z M270.77,489.29
		c-0.37,3.95-1.64,5.91-5.65,6.58c-13.42,2.25-26.75,5.06-40.6,7.75c-0.31-1.68-0.61-3.26-0.97-5.17
		C239.41,495.39,254.9,492.38,270.77,489.29z M191.87,504.44c0.33,3.8-0.78,5.51-4.63,6.2c-20.93,3.78-41.8,7.92-62.91,11.97
		c-0.7-1.48-1.36-2.89-2.28-4.83C145.41,513.32,168.52,508.91,191.87,504.44z M79.89,574.45c-1.94,7.05-5.62,13.21-13.51,15.28
		c-1.41,0.37-2.89,0.5-3.41,0.59c-7.02,0.01-10.27-3.21-10.38-9.34c-0.13-7.24,1.95-10.67,6.91-11.79c2.93-0.66,3.93,0.39,3.49,3.23
		c-0.43,2.79-1.02,5.58-1.12,8.38c-0.04,1.13,1.15,3.31,1.6,3.26c1.41-0.15,3.54-0.8,3.96-1.84c2-4.96,4.13-9.99,5.11-15.21
		c2.13-11.35,3.46-22.84,5.41-34.23c0.62-3.59,1.72-7.42,5.63-8.99c1.42-0.57,3.41-0.56,4.81,0.01c0.59,0.24,0.66,2.66,0.4,3.98
		c-1.74,9.05-3.71,18.05-5.44,27.1C82.12,561.39,81.64,568.09,79.89,574.45z M134.6,585.61c-7.73,7.01-22.74,4.12-27.01-5.33
		c-2.73-6.04-4.94-12.31-7.43-18.47c-2.01-4.97-4.76-8.66-11.11-6.95c-0.77,0.21-2.03-1.37-3.06-2.13c1.03-1.33,1.95-3.72,3.1-3.83
		c10.12-0.98,14.75-7.7,17.1-16.35c2.63-9.66-4.42-16.76-14.23-14.68c-8.2,1.73-14.78,6.04-19.22,13.26
		c-0.93,1.51-1.73,3.4-1.74,5.12c-0.02,3.92-2.92,4.15-5.33,4.11c-2.95-0.05-3.36-2.62-2.78-4.95c0.49-1.98,1.2-4.09,2.41-5.69
		c8.35-10.97,19.35-17.53,33.22-18.11c14.6-0.61,22.34,11.53,15.43,24.42c-2.34,4.36-6.73,7.64-10.28,11.33
		c-0.9,0.93-2.16,1.52-2.67,1.86c2.09,2.02,4.66,3.66,6.02,6c2.51,4.33,4.38,9.05,6.39,13.66c1.18,2.7,1.99,5.56,3.18,8.26
		c2.56,5.81,6.31,7.61,12.52,6.15c1.31-0.31,2.58-0.94,3.9-1.06c0.81-0.07,2.17,0.33,2.41,0.89
		C135.67,583.75,135.19,585.07,134.6,585.61z M129.76,572.67c-5.71,1.42-10.09-0.75-11.97-6.31c-4.08-12.09,2.78-31.52,18.49-35.48
		c2.22-0.56,4.76,0.1,6.96,1.06c1.03-0.83,1.95-2.03,3.13-2.4c1.88-0.59,3.93-0.64,5.92-0.91c0.16,1.72,0.62,3.47,0.41,5.15
		c-0.92,7.45-2.04,14.88-3.06,22.32c-0.12,0.85-0.33,1.84-0.02,2.56c0.68,1.57,1.49,4.07,2.57,4.25c1.5,0.24,4.22-0.87,4.79-2.14
		c1.72-3.84,3.34-7.95,3.75-12.09c0.96-9.78,4.38-18.01,12.99-23.21c2.6-1.57,5.97-2.36,9.04-2.57c5.26-0.35,8.16,2.62,7.75,7.05
		c-0.45,4.85-3.91,7.41-9.51,6.6c0.34-1.27,0.68-2.52,0.94-3.74c0.48-2.2,0.8-4.8-0.28-4.54c-1.83-0.99-4.07,0.29-4.91,1.37
		c-2,2.54-4.03,5.5-4.65,8.58c-0.93,4.62-1.25,9.55-0.75,14.23c0.74,6.99,6.77,9.28,12.48,4.97c5.6-4.23,8.41-10.35,9.5-17.05
		c2-12.27,3.52-24.62,5.35-36.93c0.82-5.54,2.44-10.81,6.49-15c2.47-2.55,5.47-3.5,8.76-2.31c3.42,1.23,4.15,4.27,4.03,7.57
		c-0.27,7.33-3.23,13.53-7.94,19.05c-1.73,2.02-3.13,4.33-4.68,6.51c0.26,0.15,0.53,0.3,0.79,0.44c2.51-1.26,4.89-2.92,7.54-3.7
		c7.78-2.31,13.64,2.44,13.07,10.55c-0.27,3.92-1.11,7.8-1.65,11.7c-0.22,1.58-0.28,3.24-0.39,4.75c-0.17,2.33,0.89,5.04,2.6,5.32
		c1.84,0.31,5.12-0.92,5.83-2.42c2.11-4.47,4.01-9.3,4.66-14.17c1.57-11.81,8.97-21.22,19.42-23.44c7.51-1.59,12.02,2.96,9.9,10.29
		c-2.6,8.99-9.69,13.58-17.62,17.22c-0.54,0.25-1.12,0.43-1.87,0.72c0.73,6.69,4.29,9.27,10.48,7.43
		c8.44-2.5,12.49-9.02,13.84-17.12c2.26-13.6,3.79-27.33,6.14-40.91c0.75-4.36,2.72-8.66,4.87-12.59c2.23-4.08,6.53-5.48,10.07-4.29
		c3.51,1.18,5.09,3.79,4.94,8.94c-0.31,9.99-3.26,18.81-11.21,25.58c-1.47,1.25-2.43,3.59-2.77,5.58c-1.1,6.43-1.82,12.92-2.65,19.4
		c-0.19,1.47-0.4,3-0.29,4.4c0.15,1.99-0.58,3.82,2.27,5.3c3.15-0.07,4.82-1.22,5.59-2.69c2.24-4.29,3.82-8.95,5.23-13.6
		c0.5-1.64,0.39-3.25,2.59-3.14c2.29,0.11,2.25,1.79,2.15,3.48c-0.38,6.61-2.5,12.55-7.05,17.43c-3.12,3.34-7.22,4.75-11.71,4.51
		c-4.1-0.23-6.3-2.97-7.51-7.18c-3.61,6.13-8.56,9.97-15.12,11.62c-6.9,1.74-12.97,0.63-17.9-5.37c-0.81,1.37-1.51,2.61-2.25,3.82
		c-3.15,5.15-8.66,7.73-14.51,6.79c-4.27-0.68-7.22-3.64-7.04-8.13c0.24-6.13,1.03-12.25,1.77-18.35c0.34-2.77,1.11-5.66-2.11-7.07
		c-3.22-1.41-5.96,0.55-7.06,3.11c-2.17,5.01-3.93,10.28-5.13,15.61c-1.24,5.5-1.64,11.2-2.37,16.82c-0.43,3.27-2.97,4.31-5.54,4.42
		c-1.58,0.07-3.23-1.37-5.3-2.34c-10.09,8.17-19.16,8.76-26.91,0.8c-2.04,4.4-4.66,8.07-9.66,9.41c-4.93,1.32-9.02,0.51-12.08-3.83
		C138.45,568.75,134.65,571.46,129.76,572.67z M140.1,588.03c-0.26-1.63-0.51-3.15-0.83-5.1c127.98-24.07,255.72-48.1,383.79-72.19
		c0.11,1.93,0.19,3.37,0.3,5.2C395.68,539.95,268.08,563.95,140.1,588.03z M525.35,480.09c-2.49,15.09-16.38,23.65-28.21,20.44
		c-2.59-0.7-4.88-2.53-7.53-3.96c-2.68,6.02-7.28,10.06-14.67,9.37c-6.49-0.6-8.95-5.35-10.11-10.85c-0.36-0.11-0.47-0.19-0.55-0.17
		c-6.68,1.75-10.94,5.09-10.74,12.97c0.1,3.81-5.3,4.99-8.88,2.34c-7.46,5.47-13.78,5.26-18.08-0.6
		c-8.08,10.56-16.85,11.96-23.76,3.57c-4.4,7.96-11.3,12.35-19.96,14.33c-13.56,3.1-22.86-2.33-25.2-16.06
		c-2.82-16.55,0.84-31.95,11.64-45.07c6.48-7.87,15.19-11.05,25.42-9.61c7.1,1,11.05,6.29,9.99,13.38c-0.39,2.6-4.89,5.8-7.2,4.92
		c-0.61-0.23-1.09-1.44-1.17-2.25c-0.14-1.33,0.21-2.7,0.14-4.05c-0.18-3.84-2.23-5.78-6.04-6.02c-5.96-0.38-10.69,2.11-14.12,6.66
		c-9.04,12.04-12.39,25.72-9.68,40.46c2.64,14.34,15.06,13.96,24.75,8.36c6.34-3.67,9.48-9.81,10.32-17.09
		c1.14-9.96,5.41-18.14,14.05-23.57c3.84-2.41,8.02-3.81,12.02-1.16c2.35-1.16,4.41-2.51,6.68-3.2c2.54-0.77,4.08,0.35,3.66,3.28
		c-0.89,6.09-1.81,12.18-2.64,18.28c-0.4,2.93-1.02,5.92-0.76,8.81c0.16,1.76,0.2,4.15,2.81,5.05c2.69-0.37,4.28-1.78,4.8-3.24
		c1.9-5.4,3.53-10.98,4.5-16.62c2.24-13.1,3.73-26.33,6.21-39.37c0.71-3.74,2.36-7.35,5.82-10.46c2.47-2.21,5.3-3.21,8.43-1.88
		c3.03,1.29,3.67,4.09,3.6,7.11c-0.17,7.78-3.38,14.21-8.48,19.94c-1.55,1.74-2.42,4.08-3.9,6.66c4.66-1.75,7.85-3.61,11.23-4.07
		c6.88-0.92,11.58,5.07,9.35,12.18c-1.33,4.23-4.06,8.01-6.53,12.69c0.88,1.55,2.14,4.06,3.66,6.4c2.2,3.37,5.47,3.67,7.31,0.23
		c1.79-3.35,3.42-7.29,3.44-10.99c0.08-11.23,5.85-21.68,15.08-25.58c5.4-2.28,10.84-1.9,13.16,0.92c2.45,2.99,2.19,9.53-1.65,13.7
		c-3.69,4-7.72,7.41-12.62,10.56c-1.4,1.16-4.44,1.53-3.63,4.04c0.86,2.99,2.59,4.98,5.85,5.31c4.48,0.45,8.69-0.78,11.25-4.32
		c2.75-3.78,4.43-8.33,6.71-12.47c0.5-0.91,0.77-2.15,2.36-2.27C525.36,477.59,525.5,479.23,525.35,480.09z"/>
	<path d="M179.36,343.75c-5.71,2.55-6.87,7.48-2.54,12.13c2.11,2.27,5.33,3.47,7.75,5.51c2.36,1.99,4.26,4.51,6.53,6.62
		c0.76,0.7,2.43,1.49,3,1.14c2.44-1.54,4.61-1.97,6.39,0.66c1.79,2.64,2.88,5.5,0.84,8.59c-0.34,0.51-0.66,1.06-1.1,1.48
		c-3.09,2.94-4.87,6.37-4.75,10.79c0.06,2.07-0.89,3.61-3.41,3.95c-12.18,1.65-24.35,1.22-36.49-0.23
		c-1.07-0.13-2.59-1.95-2.74-3.14c-0.51-3.91-2.11-6.78-5.33-9.22c-5.59-4.24-6.01-9.22-1.89-14.87c0.55-0.75,0.98-1.8,0.98-2.71
		c-0.06-10.35,10.77-19.71,20.7-21.71C171.33,341.94,175.45,340.87,179.36,343.75z M167.14,371.71c1.86-2.37,3.25-3.66,3.9-5.25
		c0.19-0.48-1.61-2.48-2.63-2.59c-2.1-0.22-4.02,0.9-3.8,3.4C164.71,368.41,165.82,369.48,167.14,371.71z M182.56,382.61
		c-1.57-1.31-2.48-2.07-3.39-2.83c-1.03,1.29-2.37,2.46-2.94,3.93c-0.22,0.56,1.33,1.81,2.07,2.74
		C179.54,385.34,180.78,384.23,182.56,382.61z M150.03,370.4c-1.33,1.74-2.5,2.63-2.62,3.65c-0.09,0.76,1.18,1.68,1.84,2.52
		c0.92-0.83,2.22-1.51,2.63-2.54C152.13,373.41,151.02,372.24,150.03,370.4z"/>
	<path d="M125.26,558.83c1.33-6.82,3.17-12.19,5.31-17.43c0.62-1.52,1.65-3.22,2.98-4.1c1.59-1.05,3.91-2.09,5.54-1.68
		c1.26,0.32,2.89,2.98,2.73,4.44c-0.72,6.89-1.66,13.8-3.24,20.54c-0.55,2.33-2.87,4.58-4.93,6.14c-3.31,2.5-6.07,1.18-6.97-2.9"/>
	<path d="M247.49,532.17c0.46-6.86,1.71-12.68,5.79-17.36c1.11-1.27,3.43-2.76,5.43-1.97c1.42,1.43,1.39,3.98,0.94,5.67
		C257.97,524.72,253.13,528.31,247.49,532.17z"/>
	<path d="M285.17,499.04c1.24-7.11,2.39-14.23,3.82-21.3c0.29-1.41,0.54-3.7,2.52-3.9c2.27-0.29,1.92,3.29,1.77,4.83
		C292.6,486.06,290.38,493.01,285.17,499.04z"/>
	<path d="M206.81,509.1c0.94-5.25,1.76-10.52,2.91-15.72c0.26-1.16,0.48-3.11,2.52-3.11c1.63,0.91,1.34,2.54,1.32,3.8
		C213.46,499.89,211.43,505.01,206.81,509.1z"/>
	<path d="M411.37,503.61c-0.02-6.79,1.48-13.21,5.15-18.97c0.96-1.51,2.28-2.99,3.78-3.91c2.99-1.83,6.15-0.58,6.32,2.86
		c0.43,8.86,0.5,17.8-4.71,25.68c-0.47,0.71-0.98,1.64-1.69,1.91c-1.96,0.75-4.43,2.34-5.98,1.52c-2.13-1.12-2.17-3.19-2.8-5.06
		C411.03,506.44,411.37,504.96,411.37,503.61z"/>
	<path d="M455.72,494.51c0.37-7.31,1.54-13.73,5.4-19.34c1.64-2.38,3.95-4.33,7.18-3.15c2.35,0.86,3.09,4.44,1.58,7.88
		C467.06,486.27,462.5,491.02,455.72,494.51z"/>
	<path d="M496.04,483.68c1.34-4.74,2.23-8.82,3.68-12.68c0.75-1.98,2.29-3.81,3.89-5.25c0.9-0.81,2.94-1.28,3.91-0.79
		c0.93,0.47,1.57,2.38,1.56,3.65C509.07,473.94,502.66,481.53,496.04,483.68z"/>
	<path d="M460.07,459.89c0.91-5.29,1.71-10.61,2.8-15.86c0.22-1.07,0.57-2.71,2.36-2.86c1.59,0,1.65,2.04,1.58,3.7
		C466.58,450.52,464.31,455.52,460.07,459.89z"/>
</g>
<path class="st0" d="M503.66,412.05c0-116.45-94.4-210.86-210.86-210.86S81.95,295.6,81.95,412.05c0,29.13,5.91,56.87,16.59,82.11"
	/>
<path class="st0" d="M187.49,594.76c30.99,17.9,66.95,28.15,105.31,28.15c67.33,0,127.29-31.56,165.9-80.7"/>
</svg>
