<?xml version="1.0" standalone="no"?>
<!DOCTYPE svg PUBLIC "-//W3C//DTD SVG 20010904//EN"
 "http://www.w3.org/TR/2001/REC-SVG-20010904/DTD/svg10.dtd">
<svg version="1.0" xmlns="http://www.w3.org/2000/svg"
 width="493.000000pt" height="493.000000pt" viewBox="0 0 493.000000 493.000000"
 preserveAspectRatio="xMidYMid meet">
<metadata>
Created by potrace 1.11, written by Peter Selinger 2001-2013
</metadata>
<g transform="translate(0.000000,493.000000) scale(0.100000,-0.100000)"
fill="#000000" stroke="none">
<path d="M2101 4541 c-16 -11 -2 -43 18 -39 9 2 17 10 19 19 3 19 -19 31 -37
20z"/>
<path d="M2924 4497 c-22 -19 -27 -33 -28 -69 -1 -42 -4 -47 -34 -58 -79 -28
-70 -124 14 -156 26 -10 56 -14 76 -11 21 4 40 1 52 -8 25 -19 66 -19 66 -1 0
8 -14 17 -31 21 -28 6 -30 9 -23 38 3 18 7 36 8 41 0 6 -7 12 -17 14 -10 2
-17 0 -16 -5 3 -18 -1 -33 -10 -33 -7 0 -41 70 -41 84 0 2 16 13 35 25 64 37
71 110 14 130 -40 14 -33 15 -65 -12z m76 -35 c0 -28 -35 -72 -57 -72 -26 0
-10 82 20 102 18 11 37 -4 37 -30z m-68 -172 c14 -32 24 -61 20 -64 -12 -13
-61 -5 -86 15 -33 26 -35 71 -4 93 12 9 27 16 33 16 5 -1 22 -27 37 -60z"/>
<path d="M1961 4492 c-6 -11 -9 -21 -6 -23 8 -9 25 -167 19 -182 -10 -26 -40
-20 -52 11 -10 26 -25 86 -27 107 -1 14 -86 6 -111 -10 -25 -16 -35 -57 -25
-105 10 -44 -4 -76 -39 -90 -21 -9 -34 -9 -49 0 -27 14 -27 17 9 50 49 46 33
114 -24 103 -80 -16 -83 -146 -3 -172 43 -14 102 8 119 45 7 14 14 20 18 14
14 -23 60 -21 84 3 16 16 29 21 38 16 22 -14 46 -10 65 10 13 14 23 17 33 11
28 -18 71 -11 93 14 17 19 23 21 32 11 20 -26 81 -23 90 5 6 20 6 20 33 0 36
-26 141 -23 171 4 12 11 21 14 21 9 0 -6 14 -16 30 -23 25 -10 34 -10 52 2 20
14 25 13 49 -4 22 -16 29 -17 52 -7 27 12 50 63 39 83 -3 6 -10 -8 -17 -30
-11 -41 -40 -58 -56 -33 -4 8 -6 47 -3 87 5 67 4 73 -13 71 -10 -1 -29 1 -43
5 -57 16 -94 -20 -105 -101 -6 -44 -21 -63 -51 -63 -28 0 -27 0 -14 36 16 40
19 85 9 111 -10 28 -49 31 -71 6 -21 -24 -19 -92 3 -124 21 -30 17 -39 -12
-32 -27 7 -39 42 -39 108 0 30 -4 56 -8 59 -19 11 -29 -13 -27 -69 2 -83 -31
-132 -63 -92 -8 10 -20 91 -22 145 0 9 -5 10 -16 4 -13 -7 -17 -25 -17 -76 0
-49 -5 -71 -18 -85 -32 -34 -65 -12 -75 49 -2 8 -5 29 -9 46 -5 30 -3 33 32
43 l38 10 -38 -2 c-35 -3 -39 -1 -44 25 -7 36 -19 44 -32 20z m391 -77 c2 -25
-1 -56 -6 -68 -8 -21 -9 -20 -23 12 -17 39 -10 101 11 101 9 0 15 -16 18 -45z
m202 -17 c-1 -61 -15 -88 -46 -88 -23 0 -35 30 -32 76 5 53 21 76 52 72 26 -3
27 -5 26 -60z m-701 -15 c21 -25 33 -109 17 -128 -22 -27 -47 -17 -64 25 -21
53 -21 96 2 109 23 14 27 14 45 -6z m-172 -67 c3 -23 -3 -42 -19 -59 -18 -21
-27 -13 -35 30 -5 24 -2 35 10 42 19 10 42 4 44 -13z"/>
<path d="M1243 4299 c-17 -11 -39 -35 -48 -55 -42 -90 46 -232 147 -236 47 -2
113 35 127 70 9 22 17 28 32 25 23 -6 23 -4 4 44 -20 52 -24 84 -14 111 10 27
39 29 46 2 6 -21 18 -26 27 -11 9 14 -4 40 -24 46 -27 9 -51 -5 -65 -38 -12
-29 -13 -29 -19 -9 -4 12 -11 22 -16 22 -19 0 -19 -21 0 -70 32 -82 27 -118
-24 -149 -60 -38 -136 -5 -177 77 -25 51 -27 100 -5 135 23 35 55 41 88 17 32
-24 38 -25 38 -7 0 21 -34 47 -61 47 -13 0 -38 -9 -56 -21z"/>
<path d="M3530 4286 c-5 -13 -43 -52 -85 -86 -70 -57 -79 -62 -101 -51 -87 39
-194 -43 -122 -93 33 -23 59 -20 112 16 l48 31 34 -18 c49 -26 55 -36 44 -76
-14 -48 -12 -69 5 -69 9 0 20 17 27 44 l12 45 28 -15 c23 -12 28 -12 28 -1 0
8 -12 19 -26 25 -17 8 -24 18 -20 30 12 42 56 222 56 231 0 21 -31 11 -40 -13z
m-33 -146 l-21 -69 -35 21 c-20 12 -38 23 -40 25 -2 1 13 18 34 35 21 18 43
38 49 45 28 31 32 10 13 -57z m-162 -10 c9 -15 -10 -35 -50 -54 -55 -27 -87 3
-48 46 18 20 87 25 98 8z"/>
<path d="M2407 4149 c7 -7 15 -10 18 -7 3 3 -2 9 -12 12 -14 6 -15 5 -6 -5z"/>
<path d="M2055 4130 c-3 -5 -1 -10 4 -10 6 0 11 5 11 10 0 6 -2 10 -4 10 -3 0
-8 -4 -11 -10z"/>
<path d="M2337 4128 c2 -5 -5 -8 -15 -8 -11 0 -35 -7 -55 -15 -19 -8 -37 -11
-41 -8 -4 4 -33 8 -66 9 -32 1 -64 6 -71 10 -8 4 -9 3 -5 -4 6 -10 -18 -16
-50 -11 -4 0 -10 -3 -13 -8 -3 -5 -23 -19 -44 -31 -38 -22 -64 -22 -51 0 4 7
2 8 -5 4 -6 -4 -9 -12 -6 -17 4 -5 -1 -9 -10 -9 -10 0 -13 5 -9 13 5 8 3 8 -9
-2 -9 -7 -30 -11 -46 -9 -17 2 -28 1 -25 -3 2 -4 -10 -11 -28 -14 -18 -4 -44
-16 -59 -27 -16 -12 -32 -17 -40 -13 -7 5 -10 4 -6 -2 4 -6 -4 -19 -16 -30
-24 -22 -72 -30 -60 -10 3 7 -3 3 -15 -7 -12 -11 -22 -16 -22 -12 0 8 -59 -21
-82 -42 -10 -8 -18 -12 -18 -7 0 4 -9 -4 -21 -19 -11 -14 -26 -23 -32 -19 -7
3 -9 3 -5 -2 4 -4 0 -14 -10 -22 -10 -9 -11 -11 -2 -7 13 7 13 5 1 -9 -7 -9
-17 -15 -21 -12 -5 3 -11 1 -15 -5 -9 -14 -27 -1 -19 13 4 7 3 8 -2 4 -5 -5
-10 -13 -10 -18 -1 -5 -2 -12 -3 -15 0 -4 -8 -1 -16 6 -13 11 -14 10 -8 -5 5
-15 3 -17 -11 -12 -10 4 -15 3 -11 -3 6 -9 -8 -14 -27 -11 -5 0 -8 -3 -8 -8 0
-5 -13 -23 -29 -40 -16 -17 -36 -45 -43 -62 -7 -16 -28 -39 -46 -49 -19 -11
-31 -15 -27 -8 3 7 -2 3 -11 -9 -17 -24 -41 -32 -28 -10 4 7 3 9 -2 4 -9 -8
-10 -12 -13 -38 0 -7 -10 -9 -22 -6 -15 4 -19 3 -12 -4 7 -7 2 -23 -16 -51
-14 -22 -26 -44 -26 -49 0 -6 -7 -14 -15 -19 -11 -7 -12 -10 -1 -10 7 0 -10
-22 -38 -50 -51 -50 -101 -131 -104 -169 -1 -12 -4 -21 -8 -21 -4 0 -5 -9 -2
-20 4 -15 0 -20 -13 -20 -15 0 -16 -2 -5 -9 9 -6 10 -11 2 -15 -6 -4 -11 -4
-11 1 0 4 -10 -10 -21 -32 -12 -22 -27 -43 -33 -47 -6 -4 -7 -8 -2 -8 5 0 3
-7 -4 -15 -7 -8 -9 -15 -5 -15 4 0 0 -12 -10 -26 -9 -15 -13 -24 -8 -21 5 4
10 0 10 -8 0 -8 -4 -12 -9 -9 -4 3 -8 0 -8 -5 0 -6 6 -11 13 -11 8 0 8 -3 2
-8 -6 -4 -10 -14 -10 -22 0 -8 -4 -18 -10 -22 -6 -5 -3 -8 7 -8 11 0 15 -5 12
-15 -4 -8 -10 -15 -16 -15 -5 0 -6 5 -2 12 4 7 3 8 -4 4 -6 -4 -8 -14 -5 -23
5 -12 2 -15 -9 -11 -8 4 -15 1 -15 -8 0 -7 5 -10 10 -7 6 3 7 1 3 -5 -13 -21
-36 -123 -30 -133 3 -5 -1 -9 -8 -9 -10 0 -10 -2 1 -9 9 -6 10 -11 2 -15 -6
-4 -11 -13 -11 -19 0 -7 4 -6 10 3 9 13 10 13 10 0 0 -8 3 -26 7 -39 4 -17 3
-22 -5 -17 -7 4 -12 3 -12 -3 0 -5 6 -12 13 -14 9 -4 9 -6 0 -6 -7 -1 -13 -10
-13 -20 0 -11 -4 -22 -10 -26 -5 -3 -7 -11 -4 -18 3 -8 1 -24 -4 -37 -6 -16
-4 -42 4 -75 17 -60 16 -58 4 -50 -6 3 -7 -1 -4 -9 3 -9 10 -13 15 -10 5 3 10
-1 11 -8 4 -36 3 -44 -7 -51 -7 -6 -6 -10 2 -14 9 -3 10 -10 3 -22 -5 -10 -8
-35 -6 -56 4 -34 -10 -65 -29 -65 -3 0 -17 -10 -30 -22 -49 -47 -96 -83 -106
-80 -5 1 -8 -4 -7 -10 2 -7 -5 -12 -14 -12 -10 1 -16 -3 -15 -10 1 -6 -4 -10
-11 -8 -8 1 -11 -2 -7 -7 5 -10 -33 -37 -47 -33 -4 1 -4 -6 -1 -15 4 -10 2
-14 -4 -10 -6 4 -13 0 -17 -8 -3 -8 -9 -15 -14 -15 -5 0 -30 -20 -57 -45 -27
-24 -50 -43 -52 -41 -2 2 -21 -14 -43 -35 -29 -29 -39 -47 -41 -76 -1 -21 -12
-49 -23 -63 l-21 -25 23 19 c22 19 22 19 22 -3 0 -15 -4 -20 -12 -15 -10 6
-10 4 0 -7 16 -17 16 -42 -1 -33 -9 6 -9 4 1 -7 15 -17 16 -43 0 -33 -8 5 -8
3 -2 -7 5 -8 10 -51 10 -96 2 -66 -1 -81 -12 -76 -8 3 -14 0 -14 -6 0 -6 6
-10 13 -8 9 1 12 -19 13 -76 0 -60 -3 -76 -13 -73 -7 3 -12 0 -10 -7 1 -7 -5
-11 -13 -9 -8 2 -11 0 -7 -4 11 -11 38 -14 31 -3 -3 5 -1 9 5 9 5 0 9 -20 9
-45 -1 -29 -5 -42 -12 -38 -6 3 -5 0 2 -8 15 -17 16 -43 0 -33 -8 5 -8 3 -2
-7 5 -8 10 -51 10 -96 2 -66 -1 -81 -12 -76 -8 3 -14 0 -14 -6 0 -6 5 -10 12
-8 7 1 13 -16 16 -47 3 -45 2 -48 -17 -43 -12 3 -24 1 -27 -4 -3 -5 -2 -9 3
-8 34 6 39 -2 40 -66 1 -45 -2 -63 -9 -59 -7 5 -8 2 -3 -5 5 -9 22 -11 51 -8
37 5 42 4 37 -11 -3 -11 1 -8 11 6 19 24 42 29 49 10 3 -10 8 -10 18 1 9 9 9
11 2 7 -7 -4 -13 -2 -13 4 0 7 8 9 20 5 12 -4 26 -2 33 3 7 5 32 12 57 16 43
6 44 5 20 -9 -14 -8 -20 -14 -14 -15 6 0 22 8 35 18 13 11 31 19 39 20 8 0 29
4 45 7 17 4 44 7 62 7 18 1 30 4 28 8 -3 4 6 6 18 6 12 -1 27 0 32 3 20 11 40
10 47 -2 5 -8 8 -5 8 7 0 19 0 19 22 0 19 -15 20 -16 9 -1 -11 14 -11 17 0 19
8 0 23 2 34 3 11 1 23 4 28 5 4 1 12 4 17 5 6 1 11 3 13 4 1 1 20 4 42 7 70 7
84 10 91 17 11 11 42 8 49 -4 4 -6 1 -9 -6 -8 -21 4 -59 -11 -59 -23 0 -7 4
-7 13 1 8 6 17 8 20 4 4 -3 7 -1 7 7 0 10 3 10 15 0 8 -7 12 -17 8 -23 -3 -6
-1 -7 6 -3 6 4 9 12 5 17 -3 5 0 17 8 26 9 12 9 15 0 9 -6 -4 -12 -2 -12 3 0
17 21 13 37 -6 14 -17 14 -17 9 0 -7 22 3 22 19 0 9 -13 14 -13 20 -3 5 9 4
11 -3 6 -7 -4 -12 -1 -12 8 0 22 15 20 32 -5 14 -21 14 -21 14 -1 0 11 -5 18
-10 15 -5 -3 -6 -1 -2 5 4 7 20 10 37 7 20 -4 28 -2 24 5 -3 6 4 10 17 11 13
0 32 2 43 4 11 3 26 -3 33 -13 13 -16 13 -16 10 2 -2 10 3 21 11 24 8 3 11 0
7 -6 -3 -6 -2 -14 4 -17 6 -4 9 -1 8 6 -2 6 3 14 10 16 8 3 10 -2 7 -14 -4
-12 -2 -10 6 4 6 12 18 24 26 27 8 3 12 2 9 -3 -3 -5 1 -12 10 -15 8 -3 12 -2
9 3 -3 5 -1 12 5 16 5 3 10 0 10 -7 0 -11 2 -11 8 0 5 7 22 15 38 18 16 3 30
7 33 10 2 2 11 -2 19 -9 13 -9 14 -9 8 1 -11 18 2 15 23 -5 10 -10 17 -26 16
-36 -2 -9 0 -15 5 -12 10 6 8 23 -7 51 -11 20 -10 20 45 20 46 -1 57 -5 56
-17 -1 -11 5 -15 17 -12 15 4 19 -1 20 -23 1 -16 3 -21 6 -12 4 17 33 14 33
-4 0 -5 -5 -6 -10 -3 -6 4 -9 1 -8 -7 2 -7 -4 -12 -12 -10 -8 2 -11 0 -7 -4
10 -11 38 -14 32 -4 -3 4 3 14 12 21 15 12 16 12 10 -3 -4 -12 -2 -15 9 -11 7
3 22 2 31 -1 15 -6 15 -8 3 -16 -9 -6 -10 -10 -3 -10 6 0 15 5 18 10 4 6 16 8
28 4 25 -8 48 -29 42 -38 -3 -3 -2 -4 2 -1 3 3 12 0 20 -6 21 -18 15 -2 -8 20
l-21 20 41 -2 c40 -1 51 -9 31 -22 -5 -3 -10 -12 -10 -18 0 -7 5 -4 11 6 5 9
17 17 25 17 8 0 13 -4 10 -9 -3 -5 1 -12 10 -15 8 -3 12 -2 9 4 -4 6 6 5 22
-2 15 -7 32 -18 36 -25 4 -7 16 -13 25 -12 14 0 13 2 -3 9 -16 7 -14 8 12 7
30 -2 49 -17 21 -17 -6 0 -8 -3 -5 -6 4 -4 14 -1 22 6 19 16 88 23 79 8 -3 -5
-12 -7 -19 -4 -12 4 -16 -19 -4 -26 2 -2 3 -2 3 0 -3 6 47 52 56 52 6 0 10 -5
10 -12 0 -6 3 -8 6 -5 4 3 15 2 25 -3 10 -6 29 -11 43 -12 19 -2 22 -5 14 -15
-9 -11 -6 -12 16 -3 35 13 56 13 56 -1 0 -6 -7 -8 -17 -4 -15 5 -16 4 -5 -7
11 -11 16 -10 28 7 8 10 29 21 47 23 17 2 38 9 46 15 12 9 13 9 7 -1 -4 -6 -2
-12 3 -12 6 0 11 7 11 16 0 11 5 14 16 10 9 -3 25 -6 35 -6 16 0 19 -5 15 -22
-3 -13 -3 -17 0 -10 3 6 10 10 15 6 17 -10 50 -13 44 -3 -13 21 7 28 33 12 26
-17 27 -17 12 2 -8 11 -11 17 -6 13 4 -3 23 0 41 8 31 12 34 12 49 -9 l17 -22
-11 22 c-15 32 -12 41 7 18 11 -15 14 -15 10 -3 -9 27 23 47 73 45 25 -1 51
-6 59 -11 9 -6 12 -5 8 1 -4 6 1 14 10 18 10 3 19 1 21 -5 3 -7 9 -5 16 5 7 9
24 18 38 18 14 1 25 4 23 7 -2 3 3 11 11 18 11 10 14 10 15 0 0 -9 3 -8 7 2
10 21 45 60 54 60 5 0 8 -9 8 -21 0 -13 -4 -18 -12 -13 -6 4 -8 3 -5 -4 8 -12
32 -10 44 3 4 4 2 5 -4 1 -18 -10 -16 19 2 34 15 12 20 4 16 -22 -2 -13 6 -9
20 9 12 14 12 16 0 8 -10 -6 -12 -4 -6 4 4 7 18 11 30 9 16 -4 22 -1 18 9 -3
7 -1 13 5 13 6 0 13 -6 15 -12 3 -8 6 -6 6 4 1 10 12 20 26 24 14 3 22 10 19
15 -6 10 6 12 46 11 19 -1 21 1 10 8 -8 5 -18 6 -22 4 -14 -9 -9 5 9 26 10 11
23 20 31 20 7 0 15 7 19 15 4 12 16 14 47 11 22 -2 33 -2 24 0 -10 3 -18 10
-18 15 0 6 4 8 9 5 5 -4 11 -1 13 5 2 6 15 12 30 12 22 2 24 5 15 16 -7 8 -7
13 -2 10 11 -6 56 37 47 45 -3 3 6 6 19 6 17 0 20 3 10 9 -15 10 -7 31 12 31
9 0 9 -2 0 -8 -9 -5 -6 -12 10 -21 19 -13 20 -12 10 1 -10 11 -10 17 0 28 8 9
8 11 0 6 -18 -10 -22 18 -4 31 10 7 22 8 32 2 12 -6 19 -4 23 7 4 10 1 13 -7
9 -6 -4 -3 1 7 9 11 9 26 16 34 16 7 0 10 5 6 11 -4 8 1 9 16 4 14 -4 20 -3
16 3 -3 5 7 8 24 7 17 -1 33 1 36 6 9 15 24 10 25 -8 0 -14 2 -15 6 -3 9 23
25 30 52 23 15 -4 22 -2 18 4 -12 19 32 8 48 -12 16 -20 16 -20 6 2 -14 28
-15 28 12 30 12 1 40 5 62 9 22 4 50 7 63 8 12 1 22 4 22 8 0 3 8 5 18 3 9 -1
16 -8 14 -16 -2 -9 0 -10 11 -1 8 7 18 8 22 4 5 -4 5 -1 1 6 -4 7 -12 9 -18 6
-7 -4 -8 -2 -4 4 4 7 17 10 29 8 12 -2 27 1 34 6 17 13 33 1 27 -20 -5 -14 -4
-14 4 -2 6 8 9 17 6 21 -7 12 44 17 57 5 9 -8 10 -8 5 1 -8 14 30 26 86 27 23
0 34 4 31 11 -4 5 -3 7 1 3 5 -4 19 -2 33 3 18 7 30 6 41 -3 12 -10 14 -10 8
0 -10 17 4 15 28 -6 20 -16 20 -16 7 1 -8 9 -11 21 -7 24 4 4 11 1 15 -6 6 -9
10 -10 12 -2 2 6 17 14 33 17 16 3 33 7 38 10 4 3 8 -2 8 -10 0 -8 4 -17 9
-20 5 -4 7 2 4 13 -4 14 4 20 36 29 30 7 41 7 41 -2 0 -6 5 -3 11 7 6 9 15 15
20 11 6 -3 5 4 -3 15 -11 18 -11 23 2 31 10 6 11 10 3 10 -7 0 -13 5 -13 11 0
5 6 7 13 3 9 -6 9 -5 0 7 -13 16 -12 36 1 57 4 7 3 18 -2 25 -13 16 -12 49 2
66 8 11 8 13 -1 7 -7 -4 -13 -3 -13 3 0 5 6 12 13 14 10 4 10 6 0 6 -7 1 -13
6 -13 12 0 5 6 7 13 3 8 -5 7 -2 -2 10 -11 13 -11 20 -3 28 7 7 12 17 12 23 0
5 -5 3 -10 -5 -7 -11 -9 -9 -8 10 1 14 6 31 12 39 8 11 8 13 -1 7 -7 -4 -13
-2 -13 3 0 6 6 11 13 11 8 0 9 3 1 8 -6 4 -11 23 -11 42 0 19 5 38 11 42 8 5
7 8 -1 8 -7 0 -13 5 -13 11 0 5 6 7 13 3 8 -5 8 -2 -2 9 -11 14 -11 20 0 34
10 11 10 14 2 9 -7 -4 -13 -2 -13 3 0 6 6 11 13 11 8 0 9 3 1 8 -12 8 -13 76
-1 88 4 4 7 12 7 18 0 6 -4 4 -10 -4 -6 -10 -9 -4 -8 20 1 19 6 38 12 42 8 5
7 8 -1 8 -7 0 -13 7 -13 16 0 8 4 13 8 10 5 -3 9 1 9 9 0 8 -4 12 -9 9 -4 -3
-8 2 -8 11 0 9 5 13 10 10 6 -3 10 -1 10 4 0 6 -4 11 -9 11 -13 0 -10 104 3
112 8 5 7 8 -1 8 -7 0 -13 7 -13 15 0 8 6 15 13 15 9 0 9 2 -1 9 -8 4 -13 14
-12 22 1 8 2 35 1 61 l-1 46 -42 7 c-24 4 -48 11 -54 16 -6 5 -23 10 -38 11
-24 2 -31 10 -27 31 1 5 -3 6 -9 2 -6 -3 -8 -10 -5 -14 2 -5 -7 -6 -20 -3 -14
2 -22 9 -18 15 3 6 1 7 -5 3 -15 -9 -83 4 -77 15 3 4 -2 6 -12 5 -10 -2 -29 1
-43 6 -14 6 -36 12 -49 14 -39 5 -53 13 -45 26 5 10 4 10 -5 2 -12 -11 -101 4
-101 17 0 4 -9 5 -20 2 -11 -3 -20 0 -20 6 0 6 -6 10 -12 9 -7 -2 -12 4 -10
12 3 12 1 13 -9 3 -7 -7 -17 -13 -23 -13 -5 0 -6 3 -3 7 4 3 -1 12 -11 20 -10
9 -11 12 -2 7 8 -4 5 4 -8 18 -20 22 -21 26 -7 38 8 7 15 17 15 23 0 6 -6 2
-14 -9 -20 -27 -30 -12 -30 45 -1 27 -4 53 -8 57 -4 4 -2 14 5 22 10 13 9 14
-2 7 -11 -6 -13 -3 -9 13 4 12 2 22 -4 22 -6 0 -8 7 -4 15 3 9 0 15 -9 15 -8
0 -15 7 -15 15 0 9 -10 26 -23 38 -31 31 -55 63 -39 53 6 -4 12 -2 12 3 0 6
-5 11 -11 11 -6 0 -9 10 -7 23 2 12 9 21 16 19 8 -1 11 2 7 8 -3 6 -11 8 -16
4 -6 -3 -15 8 -22 25 -6 17 -15 31 -20 31 -4 0 -6 4 -3 9 3 5 -12 29 -34 53
-22 25 -36 49 -32 52 4 4 3 7 -3 6 -20 -4 -45 0 -43 8 2 12 -14 66 -25 80 -5
6 -6 12 -1 12 5 0 1 5 -8 11 -10 5 -18 14 -18 19 0 17 -68 78 -108 95 -23 10
-39 21 -37 25 2 4 -5 17 -16 28 -11 12 -17 22 -14 22 7 0 -11 22 -50 60 -16
17 -36 30 -42 30 -7 0 -13 4 -13 9 0 8 -37 24 -52 22 -5 -1 -8 3 -8 8 0 5 -10
7 -22 3 -21 -5 -22 -4 -9 11 12 15 12 17 -3 11 -12 -5 -19 0 -23 15 -3 11 -12
21 -20 21 -9 0 -13 6 -10 14 4 11 1 13 -10 9 -11 -4 -14 -2 -9 5 5 8 0 12 -13
12 -12 0 -21 4 -21 9 0 5 -17 15 -37 22 -21 6 -41 17 -45 23 -6 8 -8 8 -8 0 0
-16 -71 5 -94 29 -10 9 -26 22 -37 28 -11 5 -16 15 -13 21 4 6 3 8 -4 4 -6 -3
-23 -1 -39 6 -15 6 -41 13 -58 15 -16 3 -33 10 -37 16 -6 9 -8 9 -8 1 0 -20
-73 -12 -92 9 -10 11 -18 17 -18 13 0 -4 -9 -2 -20 4 -12 7 -18 16 -13 23 5 9
3 9 -9 0 -8 -7 -18 -10 -22 -6 -4 4 -17 8 -29 9 -12 1 -31 5 -41 10 -13 5 -17
4 -13 -3 5 -8 -4 -8 -28 -3 -20 5 -33 4 -29 -1 3 -5 -7 -10 -23 -10 -40 -2
-58 2 -61 12 -2 5 -14 9 -26 9 -13 0 -25 3 -29 6 -9 9 -126 10 -120 2z m303
-3529 c0 -4 -7 -6 -15 -3 -8 4 -15 10 -15 15 0 4 7 6 15 3 8 -4 15 -10 15 -15z"/>
<path d="M3590 3994 c-29 -37 -49 -72 -46 -80 6 -15 26 -20 26 -6 0 16 72 80
97 87 35 8 50 -8 35 -40 -12 -26 0 -35 23 -17 33 24 -6 78 -50 70 -25 -5 -34
5 -15 17 10 6 2 35 -10 35 -5 0 -31 -30 -60 -66z"/>
<path d="M3089 4007 c6 -8 7 -18 3 -22 -4 -5 -1 -5 6 -1 10 6 10 11 1 22 -6 8
-14 14 -16 14 -3 0 0 -6 6 -13z"/>
<path d="M3786 3978 c-11 -13 -39 -44 -63 -70 -52 -57 -57 -95 -16 -128 15
-12 37 -20 49 -17 18 3 21 -1 22 -26 1 -40 32 -80 70 -91 20 -6 33 -17 37 -33
11 -44 63 -84 96 -76 27 7 32 37 18 94 -11 43 -11 52 1 59 23 14 53 -19 46
-52 -4 -20 -1 -28 8 -28 22 0 26 25 10 56 -19 37 -42 54 -71 54 -30 0 -38 -34
-23 -90 9 -35 9 -45 -2 -57 -20 -19 -44 -7 -58 27 -11 25 -9 33 9 56 26 33 16
52 -13 25 -39 -37 -89 -21 -101 30 -9 35 7 44 45 24 37 -19 73 -11 90 21 12
21 11 27 -10 49 -14 15 -35 25 -51 25 -31 0 -79 -19 -79 -31 0 -10 -41 -24
-60 -20 -22 4 -39 29 -33 50 3 10 22 35 43 56 37 36 38 37 64 20 31 -21 35
-10 4 14 l-21 18 22 22 c22 22 21 41 -2 41 -7 0 -21 -10 -31 -22z m132 -181
c23 -28 -30 -62 -67 -43 l-23 13 23 21 c26 25 51 28 67 9z"/>
<path d="M964 3959 c-5 -8 -18 -19 -29 -25 -11 -6 -27 -22 -34 -36 -13 -22
-13 -32 -1 -67 7 -23 17 -41 21 -41 15 0 30 -62 18 -76 -18 -22 -31 -17 -89
36 -58 53 -65 56 -75 39 -10 -14 88 -105 119 -111 35 -7 69 26 64 61 -4 25 -1
27 24 23 35 -5 68 21 68 54 0 17 4 22 15 18 25 -10 65 23 65 54 -1 29 -26 70
-37 59 -3 -4 2 -16 11 -26 21 -23 13 -61 -12 -61 -9 0 -40 25 -68 57 -40 45
-53 54 -60 42z m37 -74 c41 -43 48 -80 18 -95 -17 -9 -25 -8 -42 7 -48 41 -69
80 -55 106 14 27 43 20 79 -18z"/>
<path d="M3170 3950 c0 -5 5 -10 11 -10 5 0 7 5 4 10 -3 6 -8 10 -11 10 -2 0
-4 -4 -4 -10z"/>
<path d="M3230 3946 c0 -2 8 -10 18 -17 15 -13 16 -12 3 4 -13 16 -21 21 -21
13z"/>
<path d="M710 3916 c0 -35 25 -106 37 -106 16 0 16 34 -1 79 -13 37 -36 54
-36 27z"/>
<path d="M3306 3912 c-3 -5 1 -9 9 -9 8 0 12 4 9 9 -3 4 -7 8 -9 8 -2 0 -6 -4
-9 -8z"/>
<path d="M729 3719 c-13 -13 -19 -29 -16 -45 3 -19 1 -22 -13 -14 -9 5 -22 5
-31 -1 -12 -8 -11 -12 6 -25 51 -38 95 -87 95 -105 0 -29 -44 -69 -68 -62 -17
4 -19 9 -11 30 18 48 4 84 -37 97 -43 13 -78 -54 -53 -101 7 -14 25 -37 40
-51 14 -15 29 -35 32 -45 9 -24 -27 -59 -50 -50 -16 6 -91 49 -102 59 -2 2 4
15 13 28 24 38 19 45 -9 11 -22 -26 -27 -28 -45 -17 -26 16 -40 15 -40 -2 0
-14 141 -106 170 -111 41 -7 81 37 77 85 -1 25 2 35 13 35 34 1 93 65 83 91
-3 8 1 14 10 14 31 0 27 20 -9 52 -39 34 -65 83 -57 105 6 16 35 17 50 2 8 -8
13 -7 18 2 5 7 1 17 -10 26 -25 18 -31 17 -56 -8z m-65 -165 c9 -8 14 -25 12
-37 -3 -12 -5 -26 -5 -30 -2 -13 -40 12 -52 34 -21 41 12 66 45 33z"/>
<path d="M1130 3626 c0 -2 8 -10 18 -17 15 -13 16 -12 3 4 -13 16 -21 21 -21
13z"/>
<path d="M4038 3538 c-20 -11 -41 -31 -46 -42 -13 -29 9 -81 37 -89 16 -4 21
-13 21 -36 0 -20 7 -35 20 -43 11 -7 20 -21 20 -30 0 -23 -2 -23 62 7 59 27
100 32 116 12 15 -18 1 -36 -54 -66 -26 -14 -52 -33 -57 -42 -15 -25 0 -68 26
-74 19 -5 22 -12 19 -39 -3 -26 1 -37 22 -54 17 -13 24 -26 20 -36 -10 -25 4
-64 25 -71 17 -5 18 -9 6 -31 -14 -28 -10 -57 10 -74 21 -17 60 -21 79 -7 15
11 12 12 -21 9 -65 -6 -83 44 -25 67 69 26 104 30 133 16 68 -36 157 5 127 59
-12 21 -55 21 -142 -3 -135 -36 -182 -35 -174 5 3 16 71 51 132 68 14 4 17 8
9 18 -6 7 -13 25 -17 41 -15 64 -64 81 -144 50 -40 -15 -44 -15 -59 0 -21 20
-6 40 51 69 48 25 65 45 60 72 -4 23 -34 57 -44 51 -4 -2 -5 7 -2 20 2 14 2
25 -1 25 -4 0 -35 -14 -71 -31 -70 -33 -101 -35 -101 -4 0 12 22 35 63 63 58
41 62 46 48 61 -9 10 -16 23 -16 29 0 17 -50 52 -74 52 -11 0 -37 -10 -58 -22z
m111 -26 c12 -23 -1 -45 -43 -71 -40 -25 -84 -27 -93 -5 -8 22 6 44 47 72 40
27 76 28 89 4z m215 -394 c16 -26 -3 -49 -53 -66 -103 -34 -128 40 -26 76 40
14 66 11 79 -10z m206 -167 c0 -23 -67 -42 -100 -28 -24 9 -24 9 15 22 49 16
85 18 85 6z"/>
<path d="M973 3459 c-2 -23 3 -25 10 -4 4 8 3 16 -1 19 -4 3 -9 -4 -9 -15z"/>
<path d="M474 3328 c-31 -14 -57 -74 -44 -99 18 -33 51 -29 94 12 36 33 36 33
60 16 14 -10 15 -18 7 -40 -11 -29 -46 -43 -86 -33 -25 6 -35 -7 -15 -19 45
-28 112 8 124 66 14 70 -35 90 -99 39 -43 -34 -72 -36 -67 -5 6 30 23 47 44
42 11 -3 18 0 18 8 0 20 -12 24 -36 13z"/>
<path d="M899 3323 c-13 -16 -12 -17 4 -4 9 7 17 15 17 17 0 8 -8 3 -21 -13z"/>
<path d="M3936 3272 c-3 -5 1 -9 9 -9 8 0 12 4 9 9 -3 4 -7 8 -9 8 -2 0 -6 -4
-9 -8z"/>
<path d="M825 3250 c-3 -6 1 -7 9 -4 18 7 21 14 7 14 -6 0 -13 -4 -16 -10z"/>
<path d="M786 3168 c3 -5 10 -6 15 -3 13 9 11 12 -6 12 -8 0 -12 -4 -9 -9z"/>
<path d="M400 3157 c-32 -16 -54 -61 -46 -93 8 -30 61 -64 101 -64 85 0 113
98 41 145 -34 22 -67 26 -96 12z m47 -32 c33 -14 35 -17 22 -31 -16 -16 -64
-25 -86 -17 -18 7 -16 28 3 47 19 19 16 19 61 1z m71 -57 c4 -32 -20 -42 -75
-32 l-38 7 31 13 c17 7 36 20 44 29 18 21 34 14 38 -17z"/>
<path d="M713 3045 c0 -8 4 -12 9 -9 5 3 6 10 3 15 -9 13 -12 11 -12 -6z"/>
<path d="M329 3043 c-4 -58 -12 -99 -19 -103 -16 -10 -28 -55 -19 -76 6 -18 3
-23 -13 -27 -32 -9 -8 -32 46 -46 82 -20 113 -74 71 -121 -26 -29 -45 -25 -45
8 0 40 -26 72 -59 72 -39 0 -55 -22 -47 -65 11 -58 80 -87 138 -58 35 17 57
81 40 117 l-11 24 67 -20 c84 -25 117 -27 117 -9 0 9 -42 26 -126 50 -131 37
-172 60 -167 95 5 31 22 29 35 -4 13 -34 67 -62 101 -53 25 6 38 53 22 83 -13
24 -65 48 -98 45 -22 -2 -24 0 -20 46 1 27 0 49 -4 49 -5 0 -8 -3 -9 -7z m104
-145 c22 -11 19 -50 -5 -54 -24 -3 -74 31 -81 56 -5 21 -3 22 31 15 20 -4 45
-11 55 -17z m-118 -188 c9 -10 17 -26 19 -37 4 -17 0 -19 -22 -15 -40 7 -63
31 -52 52 11 21 36 21 55 0z"/>
<path d="M4055 3029 c-4 -6 -5 -12 -2 -15 2 -3 7 2 10 11 7 17 1 20 -8 4z"/>
<path d="M695 2990 c3 -5 8 -10 11 -10 2 0 4 5 4 10 0 6 -5 10 -11 10 -5 0 -7
-4 -4 -10z"/>
<path d="M4113 2859 c-2 -23 3 -25 10 -4 4 8 3 16 -1 19 -4 3 -9 -4 -9 -15z"/>
<path d="M4090 2841 c0 -6 4 -13 10 -16 6 -3 7 1 4 9 -7 18 -14 21 -14 7z"/>
<path d="M655 2830 c-3 -5 -1 -10 4 -10 6 0 11 5 11 10 0 6 -2 10 -4 10 -3 0
-8 -4 -11 -10z"/>
<path d="M633 2805 c0 -8 4 -12 9 -9 5 3 6 10 3 15 -9 13 -12 11 -12 -6z"/>
<path d="M477 2672 c-8 -40 -40 -69 -100 -90 -27 -9 -62 -30 -77 -45 l-28 -28
-5 23 c-12 47 -94 69 -134 36 -55 -45 -54 -194 1 -230 20 -14 56 -9 56 8 0 8
-4 12 -10 9 -16 -10 -47 13 -60 45 -29 70 8 150 69 150 32 0 71 -37 71 -68 0
-34 16 -34 32 1 16 32 26 40 108 76 25 11 53 28 62 38 25 27 39 72 30 90 -7
12 -10 8 -15 -15z"/>
<path d="M4480 2650 c-9 -6 -10 -10 -3 -10 6 0 15 5 18 10 8 12 4 12 -15 0z"/>
<path d="M596 2632 c-3 -5 1 -9 9 -9 8 0 12 4 9 9 -3 4 -7 8 -9 8 -2 0 -6 -4
-9 -8z"/>
<path d="M620 2541 c0 -7 -5 -9 -12 -5 -7 5 -8 3 -3 -5 5 -9 10 -10 18 -2 6 6
8 14 4 18 -4 3 -7 1 -7 -6z"/>
<path d="M4815 2491 c-3 -5 -2 -12 3 -15 5 -3 9 1 9 9 0 17 -3 19 -12 6z"/>
<path d="M140 2425 c0 -8 6 -18 13 -20 12 -4 176 -17 209 -17 20 1 42 -33 33
-48 -3 -6 -19 -10 -36 -10 -19 0 -29 -5 -29 -15 0 -26 48 -23 72 6 15 18 16
58 2 81 -8 13 -76 27 -171 33 -81 6 -93 5 -93 -10z"/>
<path d="M4820 2356 c0 -2 8 -10 18 -17 15 -13 16 -12 3 4 -13 16 -21 21 -21
13z"/>
<path d="M601 2294 c0 -11 3 -14 6 -6 3 7 2 16 -1 19 -3 4 -6 -2 -5 -13z"/>
<path d="M570 2269 c0 -5 5 -7 10 -4 6 3 10 8 10 11 0 2 -4 4 -10 4 -5 0 -10
-5 -10 -11z"/>
<path d="M595 2241 c-3 -5 -2 -12 3 -15 5 -3 9 1 9 9 0 17 -3 19 -12 6z"/>
<path d="M4825 2230 c-3 -6 1 -7 9 -4 18 7 21 14 7 14 -6 0 -13 -4 -16 -10z"/>
<path d="M576 2072 c-3 -5 1 -9 9 -9 8 0 12 4 9 9 -3 4 -7 8 -9 8 -2 0 -6 -4
-9 -8z"/>
<path d="M4813 2055 c0 -8 4 -12 9 -9 5 3 6 10 3 15 -9 13 -12 11 -12 -6z"/>
<path d="M560 2030 c-9 -6 -10 -10 -3 -10 6 0 15 5 18 10 8 12 4 12 -15 0z"/>
<path d="M4836 1872 c-3 -5 1 -9 9 -9 8 0 12 4 9 9 -3 4 -7 8 -9 8 -2 0 -6 -4
-9 -8z"/>
<path d="M4835 1770 c3 -5 8 -10 11 -10 2 0 4 5 4 10 0 6 -5 10 -11 10 -5 0
-7 -4 -4 -10z"/>
<path d="M4826 1732 c-3 -5 1 -9 9 -9 8 0 12 4 9 9 -3 4 -7 8 -9 8 -2 0 -6 -4
-9 -8z"/>
<path d="M105 1630 c-3 -6 1 -7 9 -4 18 7 21 14 7 14 -6 0 -13 -4 -16 -10z"/>
<path d="M4835 1630 c-3 -5 -1 -10 4 -10 6 0 11 5 11 10 0 6 -2 10 -4 10 -3 0
-8 -4 -11 -10z"/>
<path d="M4806 1612 c-3 -5 1 -9 9 -9 8 0 12 4 9 9 -3 4 -7 8 -9 8 -2 0 -6 -4
-9 -8z"/>
<path d="M4723 1373 c-7 -3 -13 -9 -13 -15 0 -7 5 -7 13 1 8 6 16 8 19 5 3 -3
8 -1 12 4 5 9 -10 12 -31 5z"/>
<path d="M4611 1337 c-13 -21 -12 -21 5 -5 10 10 16 20 13 22 -3 3 -11 -5 -18
-17z"/>
<path d="M4646 1348 c3 -5 10 -6 15 -3 13 9 11 12 -6 12 -8 0 -12 -4 -9 -9z"/>
<path d="M113 1322 c0 -12 5 -22 9 -22 11 0 10 12 -2 30 -7 12 -9 10 -7 -8z"/>
<path d="M4513 1325 c0 -8 4 -12 9 -9 5 3 6 10 3 15 -9 13 -12 11 -12 -6z"/>
<path d="M4430 1310 c0 -6 7 -10 15 -10 8 0 15 2 15 4 0 2 -7 6 -15 10 -8 3
-15 1 -15 -4z"/>
<path d="M4535 1310 c-3 -5 -1 -10 4 -10 6 0 11 5 11 10 0 6 -2 10 -4 10 -3 0
-8 -4 -11 -10z"/>
<path d="M4380 1303 c0 -6 8 -17 18 -24 16 -13 16 -13 2 6 -8 11 -16 22 -17
24 -2 2 -3 0 -3 -6z"/>
<path d="M4307 1279 c7 -7 15 -10 18 -7 3 3 -2 9 -12 12 -14 6 -15 5 -6 -5z"/>
<path d="M4348 1273 c7 -3 16 -2 19 1 4 3 -2 6 -13 5 -11 0 -14 -3 -6 -6z"/>
<path d="M4455 1270 c-3 -5 -1 -10 4 -10 6 0 11 5 11 10 0 6 -2 10 -4 10 -3 0
-8 -4 -11 -10z"/>
<path d="M4221 1263 c-1 -17 16 -25 25 -12 4 7 3 9 -4 5 -5 -3 -13 0 -15 6 -4
9 -6 10 -6 1z"/>
<path d="M4096 1252 c-3 -5 1 -9 9 -9 8 0 12 4 9 9 -3 4 -7 8 -9 8 -2 0 -6 -4
-9 -8z"/>
<path d="M4030 1246 c0 -3 9 -10 20 -16 11 -6 20 -8 20 -6 0 3 -9 10 -20 16
-11 6 -20 8 -20 6z"/>
<path d="M4195 1241 c-3 -5 -2 -12 3 -15 5 -3 9 1 9 9 0 17 -3 19 -12 6z"/>
<path d="M4010 1230 c0 -5 5 -10 11 -10 5 0 7 5 4 10 -3 6 -8 10 -11 10 -2 0
-4 -4 -4 -10z"/>
<path d="M3937 1216 c-4 -9 -1 -15 6 -13 7 1 11 -4 9 -11 -1 -8 2 -11 8 -7 8
5 7 12 -2 23 -7 10 -13 18 -14 20 -1 2 -4 -4 -7 -12z"/>
<path d="M3890 1210 c0 -5 5 -10 11 -10 5 0 7 5 4 10 -3 6 -8 10 -11 10 -2 0
-4 -4 -4 -10z"/>
<path d="M4075 1199 c-4 -6 -5 -12 -2 -15 2 -3 7 2 10 11 7 17 1 20 -8 4z"/>
<path d="M113 1193 c4 -3 1 -13 -6 -21 -8 -11 -8 -14 0 -9 6 4 13 1 16 -5 2
-7 4 -1 4 15 0 15 -4 27 -10 27 -6 0 -7 -3 -4 -7z"/>
<path d="M3776 1185 c-9 -26 -7 -32 5 -12 6 10 9 21 6 23 -2 3 -7 -2 -11 -11z"/>
<path d="M3806 1174 c-19 -19 -21 -31 -3 -15 8 6 16 9 19 6 2 -3 5 2 5 10 0
19 -2 19 -21 -1z"/>
<path d="M3714 1155 c1 -8 6 -18 11 -22 4 -5 5 -2 0 6 -6 11 -4 13 8 8 23 -9
21 0 -2 13 -15 7 -19 7 -17 -5z"/>
<path d="M3514 969 c-3 -6 -1 -16 5 -22 9 -9 10 -7 5 7 -6 15 -4 17 6 11 9 -5
11 -4 6 3 -9 15 -13 15 -22 1z"/>
<path d="M3419 917 c-6 -14 -3 -45 3 -41 5 4 7 13 4 21 -4 11 -2 13 9 10 8 -4
16 -3 19 1 3 4 -4 9 -15 9 -10 1 -19 1 -20 0z"/>
<path d="M3391 894 c0 -11 3 -14 6 -6 3 7 2 16 -1 19 -3 4 -6 -2 -5 -13z"/>
<path d="M113 842 c0 -12 5 -22 9 -22 11 0 10 12 -2 30 -7 12 -9 10 -7 -8z"/>
<path d="M3350 840 c-9 -6 -10 -10 -3 -10 6 0 15 5 18 10 8 12 4 12 -15 0z"/>
<path d="M1570 768 c0 -11 12 -10 30 2 12 7 10 9 -8 7 -12 0 -22 -5 -22 -9z"/>
<path d="M1635 769 c-4 -6 -5 -12 -2 -15 2 -3 7 2 10 11 7 17 1 20 -8 4z"/>
<path d="M3250 772 c0 -5 7 -9 15 -9 8 0 12 4 9 9 -3 4 -9 8 -15 8 -5 0 -9 -4
-9 -8z"/>
<path d="M1430 740 c-6 -11 -8 -20 -6 -20 3 0 10 9 16 20 6 11 8 20 6 20 -3 0
-10 -9 -16 -20z"/>
<path d="M1459 753 c-6 -33 -5 -52 2 -47 4 2 6 11 3 19 -4 9 3 18 17 24 l24
10 -22 0 c-13 1 -24 -2 -24 -6z"/>
<path d="M1510 741 c0 -6 4 -12 8 -15 5 -3 9 1 9 9 0 8 -4 15 -9 15 -4 0 -8
-4 -8 -9z"/>
<path d="M1645 730 c3 -5 8 -10 11 -10 2 0 4 5 4 10 0 6 -5 10 -11 10 -5 0 -7
-4 -4 -10z"/>
<path d="M3108 733 c7 -3 16 -2 19 1 4 3 -2 6 -13 5 -11 0 -14 -3 -6 -6z"/>
<path d="M1356 722 c-2 -4 4 -8 14 -8 10 0 16 4 14 8 -3 4 -9 8 -14 8 -5 0
-11 -4 -14 -8z"/>
<path d="M114 705 c3 -23 12 -26 13 -5 1 11 -2 20 -7 20 -4 0 -7 -7 -6 -15z"/>
<path d="M1234 691 c0 -16 4 -27 8 -25 4 2 5 14 3 26 -7 32 -13 32 -11 -1z"/>
<path d="M1255 710 c3 -5 8 -10 11 -10 2 0 4 5 4 10 0 6 -5 10 -11 10 -5 0 -7
-4 -4 -10z"/>
<path d="M1155 689 c-4 -6 -5 -12 -2 -15 2 -3 7 2 10 11 7 17 1 20 -8 4z"/>
<path d="M1199 693 c0 -5 -2 -16 -4 -25 -2 -10 0 -20 5 -23 5 -3 7 3 5 12 -1
10 2 24 8 31 6 8 6 12 -2 12 -6 0 -11 -3 -12 -7z"/>
<path d="M1315 690 c3 -5 8 -10 11 -10 2 0 4 5 4 10 0 6 -5 10 -11 10 -5 0 -7
-4 -4 -10z"/>
<path d="M1350 688 c0 -4 4 -8 9 -8 6 0 12 4 15 8 3 5 -1 9 -9 9 -8 0 -15 -4
-15 -9z"/>
<path d="M1413 685 c0 -8 4 -12 9 -9 5 3 6 10 3 15 -9 13 -12 11 -12 -6z"/>
<path d="M3028 683 c6 -2 9 -10 6 -15 -4 -7 -2 -8 5 -4 13 9 5 26 -12 25 -9 0
-8 -2 1 -6z"/>
<path d="M1814 668 c-5 -7 -2 -8 6 -3 10 6 12 4 6 -10 -5 -15 -4 -16 9 -5 19
15 19 16 0 23 -8 4 -17 1 -21 -5z"/>
<path d="M2827 663 c-12 -12 -7 -23 11 -23 15 0 15 2 2 11 -12 9 -11 10 8 6
12 -3 20 -1 16 4 -6 11 -28 12 -37 2z"/>
<path d="M2897 657 c-4 -10 -2 -16 6 -14 7 1 11 -5 9 -13 -2 -8 0 -11 4 -7 11
11 14 38 4 32 -5 -3 -10 0 -12 7 -3 8 -7 6 -11 -5z"/>
<path d="M836 642 c-4 -7 -12 -9 -18 -6 -6 4 -8 3 -5 -3 7 -11 43 -10 54 2 5
4 3 5 -4 2 -6 -4 -13 -2 -15 5 -3 9 -6 9 -12 0z"/>
<path d="M900 639 c-13 -9 -13 -10 1 -6 9 3 23 0 30 -6 11 -10 11 -9 0 6 -7 9
-14 17 -15 17 0 0 -8 -5 -16 -11z"/>
<path d="M96 632 c-3 -5 1 -9 9 -9 8 0 12 4 9 9 -3 4 -7 8 -9 8 -2 0 -6 -4 -9
-8z"/>
<path d="M1095 630 c-3 -5 -1 -10 4 -10 6 0 11 5 11 10 0 6 -2 10 -4 10 -3 0
-8 -4 -11 -10z"/>
<path d="M1954 626 c1 -8 5 -18 8 -22 4 -3 5 1 4 10 -1 8 -5 18 -8 22 -4 3 -5
-1 -4 -10z"/>
<path d="M788 613 c7 -3 16 -2 19 1 4 3 -2 6 -13 5 -11 0 -14 -3 -6 -6z"/>
<path d="M870 615 c0 -7 30 -13 34 -7 3 4 -4 9 -15 9 -10 1 -19 0 -19 -2z"/>
<path d="M2540 609 c0 -5 9 -9 20 -9 11 0 20 2 20 4 0 2 -9 6 -20 9 -11 3 -20
1 -20 -4z"/>
<path d="M2735 610 c3 -5 8 -10 11 -10 2 0 4 5 4 10 0 6 -5 10 -11 10 -5 0 -7
-4 -4 -10z"/>
<path d="M96 597 c3 -10 9 -15 12 -12 3 3 0 11 -7 18 -10 9 -11 8 -5 -6z"/>
<path d="M680 600 c0 -5 -8 -7 -17 -3 -10 3 -15 3 -12 -1 4 -4 16 -8 27 -11
15 -2 19 0 15 11 -6 16 -13 19 -13 4z"/>
<path d="M1995 601 c-3 -5 -2 -12 3 -15 5 -3 9 1 9 9 0 17 -3 19 -12 6z"/>
<path d="M2266 596 c3 -9 10 -14 16 -13 6 1 12 -6 13 -16 2 -11 7 -22 11 -25
4 -4 4 1 1 10 -3 9 -1 18 4 20 5 2 -4 11 -21 21 -24 15 -29 15 -24 3z"/>
<path d="M630 591 c0 -6 4 -13 10 -16 6 -3 7 1 4 9 -7 18 -14 21 -14 7z"/>
<path d="M716 592 c-3 -4 4 -9 15 -9 23 -2 25 3 4 10 -8 4 -16 3 -19 -1z"/>
<path d="M799 583 c-13 -16 -12 -17 4 -4 16 13 21 21 13 21 -2 0 -10 -8 -17
-17z"/>
<path d="M2136 592 c-2 -4 0 -14 6 -22 8 -12 9 -12 5 2 -3 9 -1 19 6 22 9 3 9
5 0 5 -6 1 -14 -3 -17 -7z"/>
<path d="M2215 591 c-3 -5 0 -13 6 -17 8 -5 9 -3 4 6 -6 10 -3 12 13 8 12 -4
20 -2 16 3 -7 12 -31 12 -39 0z"/>
<path d="M2474 578 c10 -6 22 -6 26 -2 5 5 -3 10 -18 11 -22 1 -24 0 -8 -9z"/>
<path d="M2673 575 c0 -8 4 -12 9 -9 5 3 6 10 3 15 -9 13 -12 11 -12 -6z"/>
<path d="M496 563 c-6 -14 -5 -15 5 -6 7 7 10 15 7 18 -3 3 -9 -2 -12 -12z"/>
<path d="M535 570 c-3 -5 -2 -10 4 -10 5 0 13 5 16 10 3 6 2 10 -4 10 -5 0
-13 -4 -16 -10z"/>
<path d="M570 571 c0 -4 13 -7 29 -6 16 0 27 3 25 6 -5 9 -54 8 -54 0z"/>
<path d="M2095 570 c3 -5 8 -10 11 -10 2 0 4 5 4 10 0 6 -5 10 -11 10 -5 0 -7
-4 -4 -10z"/>
<path d="M2256 557 c3 -10 9 -15 12 -12 3 3 0 11 -7 18 -10 9 -11 8 -5 -6z"/>
<path d="M2210 556 c0 -2 7 -7 16 -10 8 -3 12 -2 9 4 -6 10 -25 14 -25 6z"/>
<path d="M2430 549 c0 -5 5 -7 10 -4 6 3 10 8 10 11 0 2 -4 4 -10 4 -5 0 -10
-5 -10 -11z"/>
<path d="M2466 548 c3 -5 10 -6 15 -3 13 9 11 12 -6 12 -8 0 -12 -4 -9 -9z"/>
<path d="M336 535 c-3 -8 -1 -15 4 -15 6 0 10 7 10 15 0 8 -2 15 -4 15 -2 0
-6 -7 -10 -15z"/>
<path d="M514 539 c-3 -6 -2 -15 3 -20 5 -5 9 -1 9 11 0 23 -2 24 -12 9z"/>
<path d="M415 529 c-3 -4 2 -6 10 -5 21 3 28 13 10 13 -9 0 -18 -4 -20 -8z"/>
<path d="M279 483 c-13 -16 -12 -17 4 -4 9 7 17 15 17 17 0 8 -8 3 -21 -13z"/>
<path d="M310 496 c0 -2 7 -7 16 -10 8 -3 12 -2 9 4 -6 10 -25 14 -25 6z"/>
</g>
</svg>
